<svg width="212" height="212" viewBox="0 0 212 212" fill="none" xmlns="http://www.w3.org/2000/svg">
<path d="M113.529 0C123.766 0 132.065 8.29958 132.065 18.5361V43.0723L149.415 25.7227C156.653 18.4844 168.39 18.4845 175.629 25.7227L186.277 36.3711C193.516 43.6095 193.516 55.3466 186.277 62.585L168.928 79.9346H193.465C203.701 79.9348 212 88.2343 212 98.4707V113.53C212 123.766 203.701 132.065 193.465 132.065H168.928L186.277 149.415C193.516 156.653 193.516 168.39 186.277 175.629L175.629 186.277C168.39 193.516 156.653 193.516 149.415 186.277L132.065 168.928V193.465C132.065 203.701 123.766 212 113.529 212H98.4707C88.2343 212 79.9348 203.701 79.9346 193.465V168.928L62.585 186.277C55.3466 193.516 43.6095 193.516 36.3711 186.277L25.7227 175.629C18.4844 168.39 18.4843 156.653 25.7227 149.415L43.0723 132.065H18.5361C8.29972 132.065 0.000222065 123.767 0 113.53V98.4707C0 88.2342 8.29958 79.9346 18.5361 79.9346H43.0723L25.7227 62.585C18.4843 55.3466 18.4844 43.6095 25.7227 36.3711L36.3711 25.7227C43.6095 18.4845 55.3466 18.4844 62.585 25.7227L79.9346 43.0723V18.5361C79.9346 8.29958 88.2342 0 98.4707 0H113.529Z" fill="black"/>
</svg>
