<svg width="212" height="212" viewBox="0 0 212 212" fill="none" xmlns="http://www.w3.org/2000/svg">
<path d="M105.999 0C109.334 9.49768e-06 112.629 0.174 115.888 0.475586L126.385 29.9932L150.229 9.67188C156.254 12.4425 161.972 15.7597 167.324 19.5654L161.624 50.374L192.434 44.6748C196.239 50.0268 199.557 55.7443 202.328 61.7686L182.006 85.6133L211.524 96.1104C211.826 99.369 212 102.664 212 105.999C212 109.337 211.826 112.632 211.524 115.888L182.006 126.385L202.331 150.231C199.56 156.256 196.24 161.973 192.437 167.325L161.63 161.626L167.329 192.435C161.977 196.238 156.26 199.558 150.235 202.328L126.391 182.007L115.893 211.524C112.634 211.826 109.339 212 106.004 212C102.666 212 99.3714 211.826 96.1152 211.524L85.6172 182.007L61.7705 202.328C55.7461 199.558 50.028 196.238 44.6758 192.435L50.376 161.626L19.5664 167.325C15.7631 161.973 12.4425 156.256 9.67188 150.231L29.9941 126.388L0.475586 115.891C0.173981 112.632 0 109.336 0 106.001C1.32346e-05 102.666 0.173993 99.371 0.475586 96.1123L29.9941 85.6152L9.67188 61.7686C12.4425 55.7443 15.7606 50.0268 19.5664 44.6748L50.376 50.374L44.6758 19.5654C50.028 15.7597 55.7461 12.4425 61.7705 9.67188L85.6152 29.9932L96.1094 0.475586C99.3682 0.173988 102.663 0 105.999 0Z" fill="black"/>
</svg>
