<svg width="212" height="212" viewBox="0 0 212 212" fill="none" xmlns="http://www.w3.org/2000/svg">
<path d="M106 0C117.709 0.000348303 121.349 40.1212 131.529 44.3438C142.083 48.7196 172.998 23.0935 180.952 31.0479C188.906 39.0026 163.277 69.917 167.655 80.4707C171.878 90.6513 212 94.2909 212 106C212 117.709 171.878 121.349 167.655 131.529C163.279 142.086 188.906 173.001 180.952 180.955C172.998 188.909 142.083 163.28 131.529 167.656C121.349 171.879 117.709 212 106 212C94.291 212 90.6511 171.879 80.4707 167.656C69.9144 163.28 38.9992 188.906 31.0449 180.952C23.0916 172.997 48.7196 142.083 44.3438 131.529C40.1208 121.349 0.000107874 117.709 0 106C0 94.291 40.1206 90.6511 44.3438 80.4707C48.7196 69.9169 23.0936 39.0018 31.0479 31.0449C39.0021 23.0906 69.917 48.7196 80.4707 44.3438C90.6537 40.121 94.291 0 106 0Z" fill="black"/>
</svg>
