<svg width="24" height="24" viewBox="0 0 24 24" fill="none" xmlns="http://www.w3.org/2000/svg">
<g clip-path="url(#clip0_227_8214)">
<path d="M5.57171 10.2857C8.17534 10.2857 10.286 8.17503 10.286 5.5714C10.286 2.96777 8.17534 0.857117 5.57171 0.857117C2.96808 0.857117 0.857422 2.96777 0.857422 5.5714C0.857422 8.17503 2.96808 10.2857 5.57171 10.2857Z" stroke="black" stroke-width="1.5" stroke-linecap="round" stroke-linejoin="round"/>
<path d="M18.4291 10.2857C21.0328 10.2857 23.1434 8.17503 23.1434 5.5714C23.1434 2.96777 21.0328 0.857117 18.4291 0.857117C15.8255 0.857117 13.7148 2.96777 13.7148 5.5714C13.7148 8.17503 15.8255 10.2857 18.4291 10.2857Z" stroke="black" stroke-width="1.5" stroke-linecap="round" stroke-linejoin="round"/>
<path d="M5.57171 23.1428C8.17534 23.1428 10.286 21.0321 10.286 18.4285C10.286 15.8249 8.17534 13.7142 5.57171 13.7142C2.96808 13.7142 0.857422 15.8249 0.857422 18.4285C0.857422 21.0321 2.96808 23.1428 5.57171 23.1428Z" stroke="black" stroke-width="1.5" stroke-linecap="round" stroke-linejoin="round"/>
<path d="M18.4291 23.1428C21.0328 23.1428 23.1434 21.0321 23.1434 18.4285C23.1434 15.8249 21.0328 13.7142 18.4291 13.7142C15.8255 13.7142 13.7148 15.8249 13.7148 18.4285C13.7148 21.0321 15.8255 23.1428 18.4291 23.1428Z" stroke="black" stroke-width="1.5" stroke-linecap="round" stroke-linejoin="round"/>
</g>
<defs>
<clipPath id="clip0_227_8214">
<rect width="24" height="24" fill="white"/>
</clipPath>
</defs>
</svg>
