<svg width="24" height="24" viewBox="0 0 24 24" fill="none" xmlns="http://www.w3.org/2000/svg">
<g clip-path="url(#clip0_227_8696)">
<path d="M12.8051 11.8287C12.5508 11.9391 12.2766 11.9961 11.9993 11.9961C11.7221 11.9961 11.4479 11.9391 11.1936 11.8287L1.4222 7.303C1.26353 7.22297 1.13019 7.10046 1.03702 6.94913C0.94386 6.79779 0.894531 6.62357 0.894531 6.44586C0.894531 6.26814 0.94386 6.09392 1.03702 5.94258C1.13019 5.79125 1.26353 5.66874 1.4222 5.58871L11.1936 1.02871C11.4479 0.918302 11.7221 0.861328 11.9993 0.861328C12.2766 0.861328 12.5508 0.918302 12.8051 1.02871L22.5765 5.55443C22.7352 5.63446 22.8685 5.75696 22.9617 5.9083C23.0548 6.05963 23.1042 6.23386 23.1042 6.41157C23.1042 6.58928 23.0548 6.76351 22.9617 6.91484C22.8685 7.06618 22.7352 7.18868 22.5765 7.26871L12.8051 11.8287Z" stroke="black" stroke-width="1.5" stroke-linecap="round" stroke-linejoin="round"/>
<path d="M23.1431 12.6006L12.686 17.4177C12.4627 17.5196 12.22 17.5723 11.9746 17.5723C11.7291 17.5723 11.4865 17.5196 11.2631 17.4177L0.857422 12.6006" stroke="black" stroke-width="1.5" stroke-linecap="round" stroke-linejoin="round"/>
<path d="M23.1431 18.1719L12.686 22.989C12.4627 23.0909 12.22 23.1436 11.9746 23.1436C11.7291 23.1436 11.4865 23.0909 11.2631 22.989L0.857422 18.1719" stroke="black" stroke-width="1.5" stroke-linecap="round" stroke-linejoin="round"/>
</g>
<defs>
<clipPath id="clip0_227_8696">
<rect width="24" height="24" fill="white"/>
</clipPath>
</defs>
</svg>
