<svg width="24" height="24" viewBox="0 0 24 24" fill="none" xmlns="http://www.w3.org/2000/svg">
<g clip-path="url(#clip0_969_172)">
<mask id="mask0_969_172" style="mask-type:luminance" maskUnits="userSpaceOnUse" x="0" y="0" width="24" height="24">
<path d="M24 0H0V24H24V0Z" fill="white"/>
</mask>
<g mask="url(#mask0_969_172)">
<path d="M15.0179 22.2848C16.0737 22.9659 17.3316 23.2627 18.5805 23.1253C19.8293 22.988 20.9927 22.4248 21.8751 21.5305L22.6466 20.7763C22.9847 20.4303 23.1741 19.9658 23.1741 19.482C23.1741 18.9981 22.9847 18.5336 22.6466 18.1876L19.3722 14.9476C19.0292 14.6106 18.5675 14.4217 18.0866 14.4217C17.6056 14.4217 17.1438 14.6106 16.8009 14.9476C16.4549 15.2859 15.9903 15.4753 15.5066 15.4753C15.0227 15.4753 14.5582 15.2859 14.2122 14.9476L9.06939 9.80482C8.89783 9.63575 8.76159 9.43426 8.66859 9.21206C8.5756 8.98987 8.52772 8.7514 8.52772 8.51053C8.52772 8.26967 8.5756 8.03119 8.66859 7.809C8.76159 7.58681 8.89783 7.38532 9.06939 7.21625C9.40651 6.87322 9.59541 6.41149 9.59541 5.93053C9.59541 5.44957 9.40651 4.98785 9.06939 4.64482L5.81224 1.38768C5.46632 1.04947 5.00175 0.860107 4.51796 0.860107C4.03417 0.860107 3.5696 1.04947 3.22368 1.38768L2.46939 2.1591C1.57513 3.04152 1.01196 4.20493 0.874593 5.45374C0.737226 6.70253 1.03403 7.96055 1.71511 9.01625C5.26375 14.2461 9.779 18.7497 15.0179 22.2848Z" stroke="white" stroke-width="1.5" stroke-linecap="round" stroke-linejoin="round"/>
</g>
</g>
<defs>
<clipPath id="clip0_969_172">
<rect width="24" height="24" fill="white"/>
</clipPath>
</defs>
</svg>
