<svg width="50" height="50" viewBox="0 0 50 50" fill="none" xmlns="http://www.w3.org/2000/svg">
<path d="M5.35659 21.4286H8.92801C9.40161 21.4286 9.85582 21.6167 10.1907 21.9516C10.5256 22.2865 10.7137 22.7407 10.7137 23.2143V32.1429C10.7137 32.6165 10.5256 33.0707 10.1907 33.4056C9.85582 33.7405 9.40161 33.9286 8.92801 33.9286H5.35659C4.40938 33.9286 3.50098 33.5523 2.8312 32.8825C2.16143 32.2128 1.78516 31.3044 1.78516 30.3572V25C1.78516 24.0528 2.16143 23.1444 2.8312 22.4746C3.50098 21.8049 4.40938 21.4286 5.35659 21.4286V21.4286Z" stroke="#CBCA7B" stroke-width="1.5" stroke-linecap="round" stroke-linejoin="round"/>
<path d="M44.6415 33.9286H41.07C40.5964 33.9286 40.1422 33.7405 39.8073 33.4056C39.4725 33.0707 39.2843 32.6165 39.2843 32.1429V23.2143C39.2843 22.7407 39.4725 22.2865 39.8073 21.9516C40.1422 21.6167 40.5964 21.4286 41.07 21.4286H44.6415C45.5887 21.4286 46.4971 21.8049 47.1668 22.4746C47.8366 23.1444 48.2129 24.0528 48.2129 25V30.3572C48.2129 31.3044 47.8366 32.2128 47.1668 32.8825C46.4971 33.5523 45.5887 33.9286 44.6415 33.9286V33.9286Z" stroke="#CBCA7B" stroke-width="1.5" stroke-linecap="round" stroke-linejoin="round"/>
<path d="M33.9277 43.75C35.8221 43.75 37.639 42.9975 38.9785 41.6579C40.318 40.3184 41.0706 38.5016 41.0706 36.6072V33.9286" stroke="#CBCA7B" stroke-width="1.5" stroke-linecap="round" stroke-linejoin="round"/>
<path d="M29.464 39.2858C30.648 39.2858 31.7835 39.7561 32.6207 40.5933C33.458 41.4305 33.9283 42.5661 33.9283 43.7501C33.9283 44.9341 33.458 46.0696 32.6207 46.9068C31.7835 47.744 30.648 48.2143 29.464 48.2143H24.1069C22.9229 48.2143 21.7874 47.744 20.9501 46.9068C20.1129 46.0696 19.6426 44.9341 19.6426 43.7501C19.6426 42.5661 20.1129 41.4305 20.9501 40.5933C21.7874 39.7561 22.9229 39.2858 24.1069 39.2858H29.464Z" stroke="#CBCA7B" stroke-width="1.5" stroke-linecap="round" stroke-linejoin="round"/>
<path d="M8.92773 21.4286V17.8572C8.92773 13.5948 10.621 9.50696 13.6349 6.49298C16.6489 3.479 20.7368 1.78577 24.9992 1.78577C29.2616 1.78577 33.3494 3.479 36.3634 6.49298C39.3774 9.50696 41.0706 13.5948 41.0706 17.8572V21.4286" stroke="#CBCA7B" stroke-width="1.5" stroke-linecap="round" stroke-linejoin="round"/>
<path d="M19.6426 14.2858V19.6429" stroke="#CBCA7B" stroke-width="1.5" stroke-linecap="round" stroke-linejoin="round"/>
<path d="M30.3574 14.2858V19.6429" stroke="#CBCA7B" stroke-width="1.5" stroke-linecap="round" stroke-linejoin="round"/>
<path d="M19.6426 26.7858C19.6426 31.5358 30.3569 31.5358 30.3569 26.7858" stroke="#CBCA7B" stroke-width="1.5" stroke-linecap="round" stroke-linejoin="round"/>
</svg>
