<svg width="30" height="30" viewBox="0 0 30 30" fill="none" xmlns="http://www.w3.org/2000/svg">
<path d="M16.2232 5.99264L15 0.177734L13.7767 5.99264C13.3743 7.90546 12.4242 9.65989 11.042 11.042C9.65989 12.4242 7.90546 13.3743 5.99264 13.7767L0.177734 15L5.99264 16.2232C7.90543 16.6256 9.65988 17.5758 11.042 18.958C12.4242 20.3401 13.3743 22.0945 13.7767 24.0073L15 29.8222L16.2232 24.0073C16.6256 22.0945 17.5757 20.3401 18.9578 18.958C20.3401 17.5758 22.0945 16.6256 24.0073 16.2232L29.8222 15L24.0073 13.7767C22.0945 13.3743 20.34 12.4242 18.9578 11.042C17.5757 9.65989 16.6256 7.90546 16.2232 5.99264Z" fill="black"/>
</svg>
