<svg width="24" height="25" viewBox="0 0 24 25" fill="none" xmlns="http://www.w3.org/2000/svg">
<g clip-path="url(#clip0_417_1413)">
<path d="M21.4297 2.74854L15.584 8.66068" stroke="black" stroke-width="1.5" stroke-linecap="round" stroke-linejoin="round"/>
<path d="M2.57227 2.74854L8.41798 8.66068" stroke="black" stroke-width="1.5" stroke-linecap="round" stroke-linejoin="round"/>
<path d="M2.57227 21.8199L8.41798 15.9077" stroke="black" stroke-width="1.5" stroke-linecap="round" stroke-linejoin="round"/>
<path d="M21.4297 21.8199L15.584 15.9077" stroke="black" stroke-width="1.5" stroke-linecap="round" stroke-linejoin="round"/>
<path d="M12.0003 23.5536C18.1543 23.5536 23.1431 18.5081 23.1431 12.2841C23.1431 6.06017 18.1543 1.01465 12.0003 1.01465C5.84625 1.01465 0.857422 6.06017 0.857422 12.2841C0.857422 18.5081 5.84625 23.5536 12.0003 23.5536Z" stroke="black" stroke-width="1.5" stroke-linecap="round" stroke-linejoin="round"/>
<path d="M12.0005 17.3987C14.7935 17.3987 17.0576 15.1088 17.0576 12.284C17.0576 9.45932 14.7935 7.16943 12.0005 7.16943C9.20752 7.16943 6.94336 9.45932 6.94336 12.284C6.94336 15.1088 9.20752 17.3987 12.0005 17.3987Z" stroke="black" stroke-width="1.5" stroke-linecap="round" stroke-linejoin="round"/>
</g>
<defs>
<clipPath id="clip0_417_1413">
<rect width="24" height="24.2727" fill="white" transform="translate(0 0.147949)"/>
</clipPath>
</defs>
</svg>
