<svg width="24" height="24" viewBox="0 0 24 24" fill="none" xmlns="http://www.w3.org/2000/svg">
<path d="M12 17.1772V18.9087" stroke="black" stroke-width="1.5" stroke-linecap="round" stroke-linejoin="round"/>
<path d="M12 8.58862V10.2001" stroke="black" stroke-width="1.5" stroke-linecap="round" stroke-linejoin="round"/>
<path d="M11.8853 23.1257C17.8853 23.1257 22.171 20.9999 22.171 16.2685C22.171 11.1257 19.5996 7.69709 14.4568 5.12566L16.4796 2.51995C16.5824 2.34899 16.6381 2.15389 16.6412 1.95444C16.6442 1.75499 16.5945 1.55827 16.4971 1.38423C16.3996 1.21019 16.2579 1.06501 16.0862 0.963401C15.9145 0.861796 15.7191 0.807378 15.5196 0.805664H8.25104C8.05157 0.807378 7.8561 0.861796 7.68445 0.963401C7.51279 1.06501 7.37104 1.21019 7.27358 1.38423C7.17612 1.55827 7.1264 1.75499 7.12946 1.95444C7.13253 2.15389 7.18827 2.34899 7.29104 2.51995L9.3139 5.14281C4.17104 7.73138 1.59961 11.1599 1.59961 16.3028C1.59961 20.9999 5.88532 23.1257 11.8853 23.1257Z" stroke="black" stroke-width="1.5" stroke-linecap="round" stroke-linejoin="round"/>
<path d="M10.3257 16.3885C10.5349 16.6368 10.7981 16.8339 11.0953 16.9646C11.3925 17.0954 11.7156 17.1563 12.04 17.1428C12.5358 17.1766 13.0254 17.0168 13.4058 16.6971C13.7862 16.3774 14.0279 15.9227 14.08 15.4285C14.0279 14.9343 13.7862 14.4796 13.4058 14.1599C13.0254 13.8402 12.5358 13.6804 12.04 13.7142C11.5442 13.748 11.0546 13.5883 10.6742 13.2686C10.2938 12.9489 10.0521 12.4941 10 11.9999C10.0479 11.504 10.2884 11.0466 10.6699 10.7261C11.0513 10.4056 11.5432 10.2474 12.04 10.2856C12.3587 10.2661 12.6777 10.3175 12.9741 10.4361C13.2705 10.5547 13.537 10.7375 13.7543 10.9714" stroke="black" stroke-width="1.5" stroke-linecap="round" stroke-linejoin="round"/>
</svg>
