<svg width="22" height="22" viewBox="0 0 22 22" fill="none" xmlns="http://www.w3.org/2000/svg">
<g clip-path="url(#clip0_227_6329)">
<path d="M2.35658 9.42871H3.92801C4.1364 9.42871 4.33625 9.51149 4.4836 9.65884C4.63095 9.80619 4.71373 10.006 4.71373 10.2144V14.143C4.71373 14.3514 4.63095 14.5512 4.4836 14.6986C4.33625 14.8459 4.1364 14.9287 3.92801 14.9287H2.35658C1.93982 14.9287 1.54012 14.7631 1.24542 14.4684C0.950717 14.1737 0.785156 13.7741 0.785156 13.3573V11.0001C0.785156 10.5834 0.950717 10.1837 1.24542 9.88897C1.54012 9.59427 1.93982 9.42871 2.35658 9.42871V9.42871Z" stroke="black" stroke-width="1.5" stroke-linecap="round" stroke-linejoin="round"/>
<path d="M19.6434 14.9287H18.072C17.8636 14.9287 17.6638 14.8459 17.5164 14.6986C17.3691 14.5512 17.2863 14.3514 17.2863 14.143V10.2144C17.2863 10.006 17.3691 9.80619 17.5164 9.65884C17.6638 9.51149 17.8636 9.42871 18.072 9.42871H19.6434C20.0602 9.42871 20.4599 9.59427 20.7546 9.88897C21.0493 10.1837 21.2148 10.5834 21.2148 11.0001V13.3573C21.2148 13.7741 21.0493 14.1737 20.7546 14.4684C20.4599 14.7631 20.0602 14.9287 19.6434 14.9287V14.9287Z" stroke="black" stroke-width="1.5" stroke-linecap="round" stroke-linejoin="round"/>
<path d="M14.9277 19.2501C15.7613 19.2501 16.5607 18.919 17.1501 18.3296C17.7395 17.7402 18.0706 16.9408 18.0706 16.1073V14.9287" stroke="black" stroke-width="1.5" stroke-linecap="round" stroke-linejoin="round"/>
<path d="M12.964 17.2861C13.485 17.2861 13.9846 17.4931 14.353 17.8615C14.7213 18.2298 14.9283 18.7295 14.9283 19.2504C14.9283 19.7714 14.7213 20.271 14.353 20.6394C13.9846 21.0078 13.485 21.2147 12.964 21.2147H10.6069C10.0859 21.2147 9.58628 21.0078 9.2179 20.6394C8.84953 20.271 8.64258 19.7714 8.64258 19.2504C8.64258 18.7295 8.84953 18.2298 9.2179 17.8615C9.58628 17.4931 10.0859 17.2861 10.6069 17.2861H12.964Z" stroke="black" stroke-width="1.5" stroke-linecap="round" stroke-linejoin="round"/>
<path d="M3.92773 9.42899V7.85756C3.92773 5.9821 4.67276 4.18346 5.99891 2.85731C7.32506 1.53116 9.1237 0.786133 10.9992 0.786133C12.8746 0.786133 14.6733 1.53116 15.9994 2.85731C17.3256 4.18346 18.0706 5.9821 18.0706 7.85756V9.42899" stroke="black" stroke-width="1.5" stroke-linecap="round" stroke-linejoin="round"/>
<path d="M8.64258 6.28613V8.64328" stroke="black" stroke-width="1.5" stroke-linecap="round" stroke-linejoin="round"/>
<path d="M13.3574 6.28613V8.64328" stroke="black" stroke-width="1.5" stroke-linecap="round" stroke-linejoin="round"/>
<path d="M8.64258 11.7861C8.64258 13.8761 13.3569 13.8761 13.3569 11.7861" stroke="black" stroke-width="1.5" stroke-linecap="round" stroke-linejoin="round"/>
</g>
<defs>
<clipPath id="clip0_227_6329">
<rect width="22" height="22" fill="white"/>
</clipPath>
</defs>
</svg>
