<svg width="24" height="24" viewBox="0 0 24 24" fill="none" xmlns="http://www.w3.org/2000/svg">
<path d="M18.2394 2.64014H5.75939C5.47167 2.64804 5.18985 2.72354 4.93671 2.86053C4.68357 2.99752 4.46623 3.19216 4.30225 3.42871L1.18225 7.74871C0.950574 8.07609 0.834873 8.47147 0.853507 8.87211C0.872141 9.27274 1.02404 9.65567 1.28511 9.96014L10.6451 20.743C10.8053 20.9495 11.0107 21.1166 11.2454 21.2315C11.4801 21.3465 11.738 21.4062 11.9994 21.4062C12.2608 21.4062 12.5187 21.3465 12.7534 21.2315C12.9881 21.1166 13.1934 20.9495 13.3537 20.743L22.7137 9.96014C22.9747 9.65567 23.1266 9.27274 23.1453 8.87211C23.1639 8.47147 23.0482 8.07609 22.8165 7.74871L19.6965 3.42871C19.5326 3.19216 19.3152 2.99752 19.0621 2.86053C18.8089 2.72354 18.5271 2.64804 18.2394 2.64014V2.64014Z" stroke="black" stroke-linecap="round" stroke-linejoin="round"/>
<path d="M11.1086 2.62305L6.92578 9.10305L12.0001 21.3602" stroke="black" stroke-linecap="round" stroke-linejoin="round"/>
<path d="M12.9429 2.62305L17.1086 9.10305L12 21.3602" stroke="black" stroke-linecap="round" stroke-linejoin="round"/>
<path d="M0.890625 9.10303H23.1078" stroke="black" stroke-linecap="round" stroke-linejoin="round"/>
</svg>
