<svg width="24" height="24" viewBox="0 0 24 24" fill="none" xmlns="http://www.w3.org/2000/svg">
<g clip-path="url(#clip0_969_165)">
<mask id="mask0_969_165" style="mask-type:luminance" maskUnits="userSpaceOnUse" x="0" y="0" width="24" height="24">
<path d="M24 0H0V24H24V0Z" fill="white"/>
</mask>
<g mask="url(#mask0_969_165)">
<path d="M21.4289 3H2.57171C1.62494 3 0.857422 3.76751 0.857422 4.71428V19.2857C0.857422 20.2325 1.62494 21 2.57171 21H21.4289C22.3757 21 23.1432 20.2325 23.1432 19.2857V4.71428C23.1432 3.76751 22.3757 3 21.4289 3Z" stroke="white" stroke-width="1.5" stroke-linecap="round" stroke-linejoin="round"/>
<path d="M0.857422 5.14221L10.9031 13.7136C11.2112 13.9702 11.5994 14.1107 12.0003 14.1107C12.4011 14.1107 12.7893 13.9702 13.0974 13.7136L23.1432 5.14221" stroke="white" stroke-width="1.5" stroke-linecap="round" stroke-linejoin="round"/>
</g>
</g>
<defs>
<clipPath id="clip0_969_165">
<rect width="24" height="24" fill="white"/>
</clipPath>
</defs>
</svg>
