<svg width="24" height="24" viewBox="0 0 24 24" fill="none" xmlns="http://www.w3.org/2000/svg">
<g clip-path="url(#clip0_260_118)">
<path d="M12.0003 23.1431C18.1543 23.1431 23.1431 18.1543 23.1431 12.0003C23.1431 5.84625 18.1543 0.857422 12.0003 0.857422C5.84625 0.857422 0.857422 5.84625 0.857422 12.0003C0.857422 18.1543 5.84625 23.1431 12.0003 23.1431Z" stroke="black" stroke-linecap="round" stroke-linejoin="round"/>
<path d="M12.0006 16.2863C14.3675 16.2863 16.2863 14.3675 16.2863 12.0006C16.2863 9.63362 14.3675 7.71484 12.0006 7.71484C9.63362 7.71484 7.71484 9.63362 7.71484 12.0006C7.71484 14.3675 9.63362 16.2863 12.0006 16.2863Z" stroke="black" stroke-linecap="round" stroke-linejoin="round"/>
<path d="M7.71484 12.0006V1.71484" stroke="black" stroke-linecap="round" stroke-linejoin="round"/>
<path d="M12 7.71484H22.2857" stroke="black" stroke-linecap="round" stroke-linejoin="round"/>
<path d="M16.2852 12V22.2857" stroke="black" stroke-linecap="round" stroke-linejoin="round"/>
<path d="M12.0006 16.2861H1.71484" stroke="black" stroke-linecap="round" stroke-linejoin="round"/>
</g>
<defs>
<clipPath id="clip0_260_118">
<rect width="24" height="24" fill="white"/>
</clipPath>
</defs>
</svg>
