<svg width="24" height="24" viewBox="0 0 24 24" fill="none" xmlns="http://www.w3.org/2000/svg">
<g clip-path="url(#clip0_249_66)">
<path d="M11.9983 9.42836C18.1524 9.42836 23.1412 7.50958 23.1412 5.14265C23.1412 2.77571 18.1524 0.856934 11.9983 0.856934C5.8443 0.856934 0.855469 2.77571 0.855469 5.14265C0.855469 7.50958 5.8443 9.42836 11.9983 9.42836Z" stroke="black" stroke-width="1.5" stroke-linecap="round" stroke-linejoin="round"/>
<path d="M0.855469 5.14258V18.8569C0.855469 21.2226 5.84404 23.1426 11.9983 23.1426C18.1526 23.1426 23.1412 21.2226 23.1412 18.8569V5.14258" stroke="black" stroke-width="1.5" stroke-linecap="round" stroke-linejoin="round"/>
<path d="M23.1412 11.9998C23.1412 14.3655 18.1526 16.2855 11.9983 16.2855C5.84404 16.2855 0.855469 14.3655 0.855469 11.9998" stroke="black" stroke-width="1.5" stroke-linecap="round" stroke-linejoin="round"/>
</g>
<defs>
<clipPath id="clip0_249_66">
<rect width="24" height="24" fill="white"/>
</clipPath>
</defs>
</svg>
