<svg width="167" height="41" viewBox="0 0 167 41" fill="none" xmlns="http://www.w3.org/2000/svg">
<g clip-path="url(#clip0_227_6532)">
<path d="M48.6309 28.7938H60.5829V25.1938H52.8789V11.6338H48.6309V28.7938Z" fill="white"/>
<path d="M67.6633 26.3939C65.9593 26.3939 65.0713 24.9059 65.0713 22.6739C65.0713 20.4419 65.9593 18.9299 67.6633 18.9299C69.3673 18.9299 70.2793 20.4419 70.2793 22.6739C70.2793 24.9059 69.3673 26.3939 67.6633 26.3939ZM67.6873 29.1779C71.6473 29.1779 74.2393 26.3699 74.2393 22.6739C74.2393 18.9779 71.6473 16.1699 67.6873 16.1699C63.7513 16.1699 61.1113 18.9779 61.1113 22.6739C61.1113 26.3699 63.7513 29.1779 67.6873 29.1779Z" fill="white"/>
<path d="M81.0941 33.0415C82.9181 33.0415 84.5261 32.6335 85.6061 31.6735C86.5901 30.7855 87.2381 29.4415 87.2381 27.5935V16.5055H83.4941V17.8255H83.4461C82.7261 16.7935 81.6221 16.1455 79.9901 16.1455C76.9421 16.1455 74.8301 18.6895 74.8301 22.2895C74.8301 26.0575 77.3981 28.1215 80.1581 28.1215C81.6461 28.1215 82.5821 27.5215 83.3021 26.7055H83.3981V27.9295C83.3981 29.4175 82.7021 30.2815 81.0461 30.2815C79.7501 30.2815 79.1021 29.7295 78.8861 29.0815H75.0941C75.4781 31.6495 77.7101 33.0415 81.0941 33.0415ZM81.0701 25.2175C79.6061 25.2175 78.6461 24.0175 78.6461 22.1695C78.6461 20.2975 79.6061 19.0975 81.0701 19.0975C82.7021 19.0975 83.5661 20.4895 83.5661 22.1455C83.5661 23.8735 82.7741 25.2175 81.0701 25.2175Z" fill="white"/>
<path d="M94.9368 26.3939C93.2328 26.3939 92.3448 24.9059 92.3448 22.6739C92.3448 20.4419 93.2328 18.9299 94.9368 18.9299C96.6408 18.9299 97.5528 20.4419 97.5528 22.6739C97.5528 24.9059 96.6408 26.3939 94.9368 26.3939ZM94.9608 29.1779C98.9208 29.1779 101.513 26.3699 101.513 22.6739C101.513 18.9779 98.9208 16.1699 94.9608 16.1699C91.0248 16.1699 88.3848 18.9779 88.3848 22.6739C88.3848 26.3699 91.0248 29.1779 94.9608 29.1779Z" fill="white"/>
<path d="M102.656 28.7938H106.568V16.5058H102.656V28.7938ZM102.656 14.8018H106.568V11.6338H102.656V14.8018Z" fill="white"/>
<path d="M108.264 32.8495H112.176V27.5215H112.224C112.992 28.5535 114.12 29.1775 115.704 29.1775C118.92 29.1775 121.056 26.6335 121.056 22.6495C121.056 18.9535 119.064 16.1455 115.8 16.1455C114.12 16.1455 112.92 16.8895 112.08 17.9935H112.008V16.5055H108.264V32.8495ZM114.696 26.1535C113.016 26.1535 112.056 24.7855 112.056 22.7935C112.056 20.8015 112.92 19.2895 114.624 19.2895C116.304 19.2895 117.096 20.6815 117.096 22.7935C117.096 24.8815 116.184 26.1535 114.696 26.1535Z" fill="white"/>
<path d="M127.425 29.1775C130.641 29.1775 133.017 27.7855 133.017 25.0975C133.017 21.9535 130.473 21.4015 128.313 21.0415C126.753 20.7535 125.361 20.6335 125.361 19.7695C125.361 19.0015 126.105 18.6415 127.065 18.6415C128.145 18.6415 128.889 18.9775 129.033 20.0815H132.633C132.441 17.6575 130.569 16.1455 127.089 16.1455C124.185 16.1455 121.785 17.4895 121.785 20.0815C121.785 22.9615 124.065 23.5375 126.201 23.8975C127.833 24.1855 129.321 24.3055 129.321 25.4095C129.321 26.2015 128.577 26.6335 127.401 26.6335C126.105 26.6335 125.289 26.0335 125.145 24.8095H121.449C121.569 27.5215 123.825 29.1775 127.425 29.1775Z" fill="white"/>
<path d="M138.332 29.1539C140.036 29.1539 141.116 28.4819 142.004 27.2819H142.076V28.7939H145.82V16.5059H141.908V23.3699C141.908 24.8339 141.092 25.8419 139.748 25.8419C138.5 25.8419 137.9 25.0979 137.9 23.7539V16.5059H134.012V24.5699C134.012 27.3059 135.5 29.1539 138.332 29.1539Z" fill="white"/>
<path d="M147.521 28.7935H151.433V21.9055C151.433 20.4415 152.153 19.4095 153.377 19.4095C154.553 19.4095 155.105 20.1775 155.105 21.4975V28.7935H159.017V21.9055C159.017 20.4415 159.713 19.4095 160.961 19.4095C162.137 19.4095 162.689 20.1775 162.689 21.4975V28.7935H166.601V20.8015C166.601 18.0415 165.209 16.1455 162.425 16.1455C160.841 16.1455 159.521 16.8175 158.561 18.3055H158.513C157.889 16.9855 156.665 16.1455 155.057 16.1455C153.281 16.1455 152.105 16.9855 151.337 18.2575H151.265V16.5055H147.521V28.7935Z" fill="white"/>
<path fill-rule="evenodd" clip-rule="evenodd" d="M8.65429 3.89181C7.22363 4.89217 5.92993 6.07492 4.80688 7.40634C9.39618 6.98027 15.2267 7.67599 21.9959 11.0606C29.2245 14.6748 35.0453 14.797 39.0963 14.0156C38.7287 12.9027 38.2659 11.8331 37.7178 10.8163C33.0805 11.3054 27.1355 10.658 20.2071 7.19392C15.8075 4.99412 11.9293 4.08795 8.65429 3.89181ZM35.0089 6.96059C31.3468 2.86894 26.0249 0.293945 20.1015 0.293945C18.362 0.293945 16.6742 0.516052 15.0652 0.933425C17.2444 1.52803 19.5594 2.39793 21.9959 3.61621C27.0685 6.15247 31.4479 6.9691 35.0089 6.96059ZM39.9624 17.922C35.0684 18.8884 28.3103 18.6899 20.2071 14.6383C12.6315 10.8505 6.60199 10.8982 2.53546 11.8019C2.32556 11.8485 2.1206 11.8975 1.92059 11.9485C1.38818 13.1064 0.963196 14.324 0.658264 15.5884C0.983948 15.5014 1.32049 15.4187 1.66772 15.3415C6.60113 14.2452 13.5716 14.2928 21.9959 18.505C29.5716 22.2928 35.6011 22.2451 39.6677 21.3414C39.807 21.3105 39.9443 21.2785 40.0793 21.2455C40.0941 20.9302 40.1015 20.6129 40.1015 20.2939C40.1015 19.4914 40.0543 18.6999 39.9624 17.922ZM39.4263 25.4662C34.5798 26.3135 28.0185 25.9883 20.2071 22.0827C12.6315 18.2949 6.60199 18.3426 2.53546 19.2463C1.63281 19.4468 0.820801 19.6911 0.104493 19.949C0.10254 20.0637 0.101562 20.1787 0.101562 20.2939C0.101562 31.3396 9.05585 40.2939 20.1015 40.2939C29.3586 40.2939 37.1468 34.0048 39.4263 25.4662Z" fill="#F58220"/>
</g>
<defs>
<clipPath id="clip0_227_6532">
<rect width="167" height="41" fill="white"/>
</clipPath>
</defs>
</svg>
