<svg width="128" height="130" viewBox="0 0 128 130" fill="none" xmlns="http://www.w3.org/2000/svg">
<path d="M68.1862 11.1403L65.9238 0L67.9233 0.269599L69.6116 9.45955L71.2399 6.05703L70.106 0.563895L72.0749 0.829378L72.7592 4.71398L74.4407 1.14837L76.425 1.41591L73.8499 6.40895L74.5111 10.1202L78.5923 1.70815L80.5918 1.97775L75.4363 12.1179L73.1163 11.8051L72.3438 7.76925L70.5062 11.4531L68.1862 11.1403Z" fill="white"/>
<path d="M81.3306 14.1059C80.9069 13.9498 80.5441 13.718 80.2423 13.4105C79.9405 13.1031 79.7328 12.7485 79.6192 12.3469C79.5189 11.9392 79.5506 11.5147 79.7145 11.0736C79.9105 10.5461 80.2008 10.1624 80.5855 9.92251C80.9703 9.68264 81.4192 9.56456 81.9324 9.56829C82.4553 9.57556 83.0008 9.68386 83.569 9.89321L85.2735 10.5212C85.3947 10.1951 85.4433 9.9023 85.4193 9.64268C85.4049 9.38661 85.318 9.16378 85.1585 8.97418C85.0122 8.77854 84.7946 8.62749 84.5057 8.52105C84.1686 8.39686 83.8368 8.36182 83.5101 8.41592C83.1967 8.46398 82.9469 8.65 82.7609 8.97398L80.9118 8.29273C81.1524 7.79257 81.4962 7.41224 81.9433 7.15175C82.3904 6.89125 82.8922 6.749 83.4485 6.72501C84.0049 6.70101 84.5575 6.79014 85.1064 6.99238C85.7806 7.24076 86.3024 7.57478 86.6721 7.99445C87.0513 8.41767 87.2806 8.90558 87.36 9.45819C87.4429 10.0012 87.3686 10.5844 87.137 11.2078L86.33 13.3801C86.2709 13.5982 86.2945 13.7704 86.4008 13.8968C86.5072 14.0232 86.6711 14.1272 86.8926 14.2089L86.3207 15.7482C85.8681 15.5814 85.5037 15.3981 85.2276 15.1982C84.9612 15.0019 84.7619 14.7868 84.6299 14.5528C84.5014 14.3092 84.4178 14.033 84.3792 13.7244C84.0188 14.0169 83.5545 14.2056 82.9864 14.2907C82.4315 14.3697 81.8796 14.3081 81.3306 14.1059ZM82.4156 12.8211C82.7334 12.9382 83.049 12.9727 83.3625 12.9246C83.6856 12.8801 83.9771 12.7585 84.237 12.5599C84.4969 12.3613 84.6892 12.0941 84.8139 11.7584L84.8353 11.7009L83.2463 11.1154C83.0344 11.0374 82.8197 10.9964 82.6022 10.9926C82.3882 10.9792 82.1985 11.0183 82.033 11.11C81.8711 11.1921 81.7492 11.3435 81.6673 11.564C81.5568 11.8614 81.576 12.1192 81.7248 12.3376C81.8868 12.5499 82.1171 12.7111 82.4156 12.8211Z" fill="white"/>
<path d="M90.2423 17.8765C89.5196 17.4874 89.0684 17.0178 88.8884 16.4676C88.7176 15.9222 88.8226 15.2987 89.2034 14.5971L90.9101 11.4531L90.0429 10.9862L90.8266 9.5424L91.6938 10.0092L92.5801 8.37651L94.3144 9.31018L93.4281 10.9429L94.9592 11.7672L94.1755 13.211L92.6444 12.3867L90.9304 15.5442C90.7937 15.7961 90.7687 16.0035 90.8554 16.1664C90.942 16.3293 91.0938 16.4691 91.3105 16.5858L92.11 17.0162L91.3262 18.46L90.2423 17.8765Z" fill="white"/>
<path d="M95.8395 21.6885C95.2208 21.2319 94.7814 20.6975 94.5212 20.0854C94.2671 19.4652 94.1895 18.8224 94.2884 18.1572C94.3934 17.4838 94.6782 16.8349 95.1429 16.2106C95.6014 15.5945 96.1348 15.1354 96.743 14.8334C97.3595 14.5375 97.9995 14.4245 98.6632 14.4944C99.3331 14.5561 99.9814 14.8183 100.608 15.2811C101.351 15.8291 101.84 16.4767 102.076 17.2238C102.321 17.9771 102.265 18.7822 101.908 19.639L100.213 18.3877C100.316 18.0947 100.322 17.7869 100.23 17.4643C100.152 17.1396 99.9437 16.8524 99.6055 16.6027C99.2673 16.3531 98.9268 16.2353 98.5839 16.2495C98.241 16.2637 97.909 16.375 97.5878 16.5834C97.2809 16.7896 97.0021 17.0611 96.7515 17.3979C96.5008 17.7347 96.3179 18.0834 96.2029 18.444C96.1023 18.8025 96.095 19.1471 96.1811 19.4779C96.2733 19.8005 96.4885 20.0867 96.8267 20.3363C97.1484 20.5738 97.4644 20.6988 97.7745 20.7114C98.0908 20.7157 98.4024 20.6148 98.7092 20.4086L100.404 21.6599C99.9548 22.0407 99.4675 22.2919 98.9425 22.4135C98.4257 22.5412 97.901 22.5421 97.3684 22.4162C96.844 22.2964 96.3344 22.0539 95.8395 21.6885Z" fill="white"/>
<path d="M100.47 25.064L108.27 17.6519L109.62 19.0611L106.7 21.8354C107.145 21.7806 107.582 21.8523 108.014 22.0504C108.459 22.2489 108.838 22.5108 109.15 22.8363C109.759 23.4725 110.051 24.1917 110.025 24.9939C110.006 25.7891 109.607 26.5572 108.827 27.2984L105.573 30.3903L104.223 28.9811L107.287 26.0692C107.703 25.6739 107.935 25.2489 107.982 24.7944C108.043 24.3402 107.879 23.9096 107.489 23.5028C107.099 23.0959 106.668 22.905 106.195 22.9302C105.737 22.9556 105.3 23.166 104.884 23.5613L101.82 26.4732L100.47 25.064Z" fill="white"/>
<path d="M110.991 38.3436L118.578 29.7637L119.586 31.6097L113.345 38.448L122.508 36.9592L123.502 38.7783L112.146 40.4591L110.991 38.3436Z" fill="white"/>
<path d="M122.63 42.8693C122.507 42.5439 122.516 42.2184 122.656 41.8927C122.809 41.5729 123.049 41.3517 123.376 41.2291C123.712 41.1029 124.039 41.1114 124.357 41.2545C124.678 41.4072 124.9 41.6462 125.023 41.9715C125.15 42.3064 125.141 42.632 124.997 42.9481C124.854 43.2643 124.614 43.4855 124.277 43.6116C123.951 43.7342 123.624 43.7258 123.297 43.5863C122.979 43.4431 122.757 43.2041 122.63 42.8693ZM114.211 44.9792L121.36 42.2968L122.055 44.1339L114.906 46.8163L114.211 44.9792Z" fill="white"/>
<path d="M116.293 51.9896C116.126 51.2723 116.157 50.6143 116.387 50.0154C116.629 49.4242 117.012 48.921 117.537 48.5057C118.075 48.0982 118.704 47.8112 119.424 47.6449C120.144 47.4785 120.827 47.4678 121.472 47.6128C122.127 47.7554 122.685 48.0464 123.146 48.4859C123.616 48.923 123.933 49.4902 124.095 50.1876C124.207 50.6657 124.212 51.1421 124.112 51.6166C124.014 52.1011 123.81 52.5367 123.499 52.9234L127.55 51.9877L127.999 53.9153L117.496 56.3411L117.047 54.4135L118.113 54.1674C117.644 54.0131 117.253 53.7361 116.939 53.3363C116.624 52.9366 116.409 52.4876 116.293 51.9896ZM118.088 52.0945C118.181 52.493 118.356 52.8147 118.614 53.0597C118.873 53.3147 119.188 53.4887 119.557 53.5818C119.937 53.6726 120.342 53.6683 120.772 53.569C121.302 53.4466 121.703 53.2438 121.974 52.9607C122.255 52.6752 122.435 52.3608 122.513 52.0173C122.591 51.6738 122.596 51.3527 122.526 51.0538C122.436 50.6653 122.261 50.3436 122.001 50.0887C121.744 49.8437 121.43 49.6746 121.061 49.5815C120.701 49.4861 120.306 49.488 119.876 49.5874C119.456 49.6844 119.096 49.8569 118.795 50.1048C118.494 50.3527 118.279 50.6491 118.148 50.9942C118.018 51.3393 117.998 51.706 118.088 52.0945Z" fill="white"/>
<path d="M117.83 62.3501C117.792 61.5534 117.933 60.8555 118.253 60.2566C118.574 59.6678 119.03 59.2006 119.619 58.8549C120.209 58.5092 120.884 58.3181 121.643 58.2816C122.453 58.2426 123.163 58.3723 123.774 58.6706C124.385 58.9688 124.868 59.4012 125.225 59.9676C125.591 60.5336 125.793 61.1996 125.83 61.9656C125.867 62.7215 125.735 63.3882 125.434 63.9657C125.133 64.5535 124.704 65.0195 124.145 65.3637C123.586 65.7182 122.932 65.9134 122.184 65.9494C122.05 65.9558 121.917 65.9571 121.783 65.9533C121.659 65.949 121.541 65.9393 121.427 65.9243L121.154 60.2861C120.796 60.334 120.483 60.4412 120.213 60.6077C119.955 60.784 119.755 61.0086 119.614 61.2815C119.483 61.5642 119.427 61.8792 119.444 62.2265C119.461 62.584 119.553 62.8867 119.719 63.1347C119.886 63.3928 120.132 63.5909 120.457 63.7288L120.559 65.8278C120.101 65.7065 119.669 65.4969 119.264 65.199C118.859 64.9011 118.526 64.5127 118.267 64.0337C118.007 63.565 117.862 63.0038 117.83 62.3501ZM122.462 60.2386L122.64 63.9004C123.152 63.8655 123.548 63.6571 123.828 63.2751C124.108 62.9033 124.236 62.4722 124.212 61.982C124.192 61.5632 124.04 61.1815 123.756 60.8368C123.482 60.4916 123.051 60.2922 122.462 60.2386Z" fill="white"/>
<path d="M117.494 71.739C117.593 70.9783 117.843 70.3197 118.247 69.763C118.659 69.2179 119.187 68.8164 119.831 68.5587C120.475 68.3011 121.189 68.2225 121.973 68.323C122.798 68.4287 123.483 68.6969 124.028 69.1276C124.582 69.5697 124.978 70.1102 125.216 70.7491C125.453 71.3981 125.525 72.0877 125.43 72.818C125.332 73.5787 125.076 74.2367 124.663 74.792C124.259 75.3486 123.74 75.7615 123.105 76.0306C122.468 76.3099 121.748 76.398 120.943 76.2949C120.179 76.197 119.519 75.9371 118.963 75.5152C118.407 75.0934 117.995 74.556 117.727 73.9031C117.468 73.2616 117.391 72.5403 117.494 71.739ZM119.186 71.9868C119.134 72.3925 119.19 72.7554 119.356 73.0757C119.53 73.4073 119.78 73.6816 120.104 73.8984C120.438 74.1165 120.814 74.2523 121.231 74.3058C121.71 74.3672 122.13 74.323 122.491 74.1734C122.85 74.0339 123.137 73.8231 123.349 73.541C123.561 73.259 123.691 72.9353 123.738 72.5702C123.79 72.1747 123.738 71.8124 123.584 71.4833C123.428 71.1644 123.189 70.8965 122.865 70.6797C122.55 70.4743 122.168 70.343 121.72 70.2855C121.272 70.2281 120.863 70.2634 120.495 70.3914C120.125 70.5296 119.824 70.7384 119.591 71.0179C119.368 71.2987 119.233 71.6216 119.186 71.9868Z" fill="white"/>
<path d="M119.712 86.3524L121.433 87.0238L121.157 85.2029L122.365 85.032L122.647 86.8386L124.072 85.6977L124.842 86.6407L123.398 87.7902L125.119 88.4616L124.675 89.5898L122.954 88.9184L123.23 90.7393L122.016 90.9245L121.754 89.1092L120.309 90.2588L119.544 89.3015L120.989 88.152L119.268 87.4806L119.712 86.3524Z" fill="white"/>
<path d="M108.575 95.8176L119.391 99.4473L118.155 101.036L109.322 97.888L111.464 100.996L116.806 102.77L115.589 104.334L111.87 102.978L114.127 106.213L112.9 107.79L109.851 103.069L106.294 101.78L111.561 109.511L110.325 111.1L104.094 101.577L105.528 99.7341L109.423 101.09L107.141 97.6607L108.575 95.8176Z" fill="white"/>
<path d="M99.4132 105.676C99.7605 105.388 100.143 105.191 100.561 105.084C100.979 104.977 101.392 104.974 101.798 105.077C102.203 105.193 102.556 105.432 102.858 105.794C103.219 106.226 103.409 106.668 103.425 107.12C103.442 107.572 103.321 108.018 103.062 108.459C102.795 108.907 102.428 109.323 101.963 109.709L100.566 110.867C100.789 111.134 101.02 111.322 101.258 111.431C101.488 111.547 101.725 111.583 101.969 111.54C102.213 111.511 102.453 111.399 102.689 111.202C102.966 110.973 103.162 110.704 103.278 110.395C103.392 110.101 103.355 109.793 103.166 109.47L104.681 108.214C104.996 108.672 105.156 109.158 105.159 109.674C105.163 110.19 105.036 110.694 104.78 111.186C104.523 111.678 104.17 112.11 103.72 112.483C103.168 112.941 102.617 113.225 102.067 113.335C101.51 113.451 100.971 113.405 100.45 113.198C99.9362 112.999 99.4657 112.644 99.0387 112.133L97.5509 110.353C97.3907 110.193 97.229 110.128 97.066 110.156C96.9029 110.185 96.7306 110.275 96.5491 110.425L95.4949 109.164C95.8658 108.856 96.2071 108.633 96.5187 108.495C96.8225 108.363 97.1091 108.298 97.3786 108.301C97.6547 108.311 97.9366 108.377 98.2245 108.498C98.1498 108.041 98.2171 107.546 98.4265 107.013C98.6345 106.495 98.9634 106.049 99.4132 105.676ZM99.9901 107.253C99.7297 107.469 99.5422 107.725 99.4276 108.019C99.3052 108.32 99.2656 108.632 99.3088 108.956C99.352 109.279 99.4885 109.578 99.7184 109.853L99.7578 109.901L101.06 108.821C101.234 108.677 101.376 108.512 101.488 108.327C101.607 108.149 101.667 107.965 101.67 107.777C101.679 107.596 101.608 107.415 101.457 107.235C101.254 106.991 101.02 106.879 100.755 106.898C100.49 106.932 100.235 107.051 99.9901 107.253Z" fill="white"/>
<path d="M91.6913 111.489C92.3899 111.059 93.0235 110.903 93.5922 111.022C94.1522 111.146 94.6429 111.547 95.0643 112.225L96.9526 115.264L97.7909 114.748L98.6581 116.143L97.8198 116.66L98.8004 118.238L97.1238 119.271L96.1432 117.693L94.6632 118.605L93.796 117.209L95.2761 116.297L93.3797 113.245C93.2284 113.001 93.0603 112.877 92.8753 112.87C92.6902 112.864 92.493 112.925 92.2834 113.055L91.5106 113.531L90.6435 112.135L91.6913 111.489Z" fill="white"/>
<path d="M85.5676 114.434C86.2736 114.127 86.9578 114.014 87.6203 114.095C88.287 114.185 88.8851 114.438 89.4149 114.855C89.9487 115.282 90.3715 115.851 90.6833 116.564C90.991 117.267 91.1246 117.956 91.0843 118.632C91.0345 119.312 90.8137 119.92 90.422 120.459C90.0343 121.006 89.4827 121.435 88.7673 121.746C87.9201 122.113 87.1124 122.213 86.3442 122.044C85.5666 121.88 84.8937 121.43 84.3256 120.695L86.26 119.855C86.4637 120.091 86.729 120.249 87.0557 120.33C87.3772 120.425 87.7309 120.388 88.1169 120.221C88.5028 120.053 88.7751 119.818 88.9337 119.515C89.0923 119.212 89.161 118.87 89.1398 118.488C89.1133 118.121 89.0159 117.745 88.8477 117.36C88.6795 116.976 88.4672 116.644 88.2106 116.365C87.9488 116.1 87.6524 115.921 87.3215 115.831C86.9947 115.749 86.6383 115.793 86.2524 115.96C85.8853 116.119 85.6189 116.33 85.4533 116.591C85.2918 116.862 85.2243 117.182 85.2509 117.549L83.3164 118.389C83.2091 117.811 83.2334 117.265 83.3893 116.751C83.5359 116.241 83.7967 115.788 84.1718 115.391C84.5375 114.998 85.0028 114.679 85.5676 114.434Z" fill="white"/>
<path d="M80.3256 116.744L82.8672 127.178L80.9662 127.637L80.0149 123.732C79.8402 124.142 79.5588 124.484 79.1709 124.757C78.7754 125.041 78.3581 125.237 77.919 125.343C77.0608 125.55 76.2895 125.442 75.6051 125.018C74.9232 124.604 74.4551 123.875 74.2009 122.832L73.1407 118.479L75.0417 118.02L76.0402 122.119C76.1758 122.676 76.4294 123.088 76.8011 123.356C77.1652 123.636 77.6217 123.71 78.1705 123.578C78.7194 123.445 79.1011 123.169 79.3158 122.749C79.5229 122.341 79.5586 121.859 79.4231 121.302L78.4246 117.203L80.3256 116.744Z" fill="white"/>
<path d="M63.4542 119.163L67.1113 130L65.0019 129.945L62.1846 121.14L58.8892 129.784L56.8106 129.729L61.0368 119.099L63.4542 119.163Z" fill="white"/>
<path d="M53.6965 126.936C54.041 126.993 54.3199 127.163 54.5332 127.446C54.7347 127.738 54.8071 128.056 54.7504 128.399C54.6921 128.752 54.5214 129.03 54.2382 129.232C53.9449 129.433 53.626 129.505 53.2815 129.449C52.9269 129.391 52.648 129.221 52.4448 128.939C52.2416 128.657 52.1692 128.339 52.2275 127.986C52.2842 127.643 52.4549 127.365 52.7398 127.153C53.0229 126.95 53.3418 126.878 53.6965 126.936ZM56.069 118.619L54.8291 126.127L52.8838 125.808L54.1236 118.301L56.069 118.619Z" fill="white"/>
<path d="M48.9338 116.914C49.6411 117.128 50.198 117.484 50.6043 117.981C50.9978 118.485 51.2439 119.067 51.3428 119.727C51.4288 120.395 51.3643 121.081 51.1492 121.785C50.9341 122.49 50.6024 123.084 50.1541 123.568C49.7027 124.062 49.1709 124.398 48.5584 124.576C47.943 124.764 47.2915 124.753 46.6038 124.545C46.1322 124.402 45.7151 124.169 45.3524 123.846C44.9799 123.519 44.703 123.125 44.5218 122.664L43.312 126.627L41.411 126.051L44.5475 115.778L46.4485 116.354L46.1304 117.396C46.4985 117.069 46.9349 116.87 47.4397 116.798C47.9446 116.726 48.4426 116.765 48.9338 116.914ZM47.9456 118.41C47.5527 118.291 47.1854 118.282 46.8437 118.381C46.4922 118.478 46.1837 118.662 45.9181 118.935C45.6495 119.217 45.451 119.568 45.3225 119.989C45.1642 120.507 45.1404 120.954 45.2511 121.33C45.3589 121.715 45.5426 122.027 45.8024 122.266C46.0621 122.505 46.3393 122.669 46.6341 122.759C47.0172 122.875 47.3845 122.884 47.736 122.788C48.0777 122.688 48.3813 122.502 48.6469 122.23C48.9095 121.967 49.105 121.626 49.2335 121.205C49.3589 120.794 49.3889 120.397 49.3235 120.014C49.258 119.631 49.1078 119.297 48.8728 119.012C48.6379 118.727 48.3288 118.526 47.9456 118.41Z" fill="white"/>
<path d="M39.146 113.056C39.8578 113.422 40.3938 113.893 40.7539 114.469C41.1049 115.041 41.283 115.667 41.2882 116.349C41.2933 117.03 41.1217 117.707 40.7734 118.38C40.4015 119.098 39.933 119.645 39.368 120.023C38.8029 120.4 38.185 120.6 37.5142 120.624C36.8387 120.656 36.1587 120.497 35.4743 120.145C34.799 119.798 34.2857 119.351 33.9344 118.802C33.574 118.249 33.3841 117.645 33.3649 116.99C33.3364 116.332 33.4941 115.67 33.8377 115.007C33.8989 114.889 33.9647 114.773 34.035 114.659C34.1006 114.555 34.1684 114.458 34.2384 114.367L39.2759 116.955C39.4132 116.623 39.477 116.299 39.4673 115.983C39.4436 115.672 39.3485 115.387 39.1818 115.129C39.0013 114.875 38.756 114.668 38.4457 114.509C38.1263 114.345 37.8172 114.272 37.5185 114.292C37.2106 114.306 36.9152 114.419 36.6324 114.63L34.7571 113.667C35.092 113.333 35.4903 113.066 35.9521 112.866C36.4138 112.665 36.9179 112.573 37.4642 112.589C38.0014 112.601 38.562 112.756 39.146 113.056ZM38.662 118.107L35.3904 116.426C35.1642 116.885 35.147 117.331 35.3391 117.763C35.5219 118.191 35.8324 118.517 36.2704 118.742C36.6446 118.934 37.0526 118.994 37.4944 118.922C37.9315 118.859 38.3207 118.587 38.662 118.107Z" fill="white"/>
<path d="M31.2352 108.113C31.8471 108.578 32.2939 109.124 32.5757 109.751C32.8432 110.379 32.9276 111.035 32.8289 111.719C32.7303 112.404 32.4409 113.059 31.9609 113.684C31.4558 114.342 30.8798 114.798 30.2326 115.052C29.5711 115.308 28.903 115.378 28.2284 115.264C27.5456 115.143 26.9105 114.859 26.3232 114.412C25.7113 113.947 25.2676 113.397 24.992 112.762C24.7102 112.136 24.6114 111.481 24.6956 110.799C24.7717 110.111 25.056 109.445 25.5486 108.804C26.0162 108.194 26.5726 107.756 27.2178 107.487C27.8631 107.219 28.5364 107.133 29.2379 107.23C29.925 107.328 30.5907 107.622 31.2352 108.113ZM30.1727 109.447C29.8463 109.198 29.5025 109.065 29.1413 109.048C28.7656 109.032 28.4024 109.11 28.0517 109.28C27.6948 109.459 27.3886 109.715 27.133 110.048C26.8399 110.43 26.668 110.814 26.6173 111.2C26.5584 111.58 26.5983 111.932 26.7371 112.256C26.8758 112.581 27.092 112.855 27.3857 113.078C27.7039 113.32 28.0446 113.457 28.4078 113.489C28.7628 113.515 29.1157 113.443 29.4664 113.272C29.8026 113.103 30.1079 112.84 30.3823 112.483C30.6566 112.125 30.8304 111.756 30.9037 111.374C30.9688 110.986 30.9383 110.621 30.812 110.281C30.6795 109.948 30.4664 109.67 30.1727 109.447Z" fill="white"/>
<path d="M17.4113 102.711L15.9687 103.861L17.6913 104.531L17.2372 105.66L15.5243 105.002L15.8067 106.801L14.6017 106.995L14.3217 105.175L12.8791 106.326L12.1185 105.38L13.5611 104.229L11.8386 103.56L12.283 102.419L13.9935 103.098L13.7136 101.278L14.9282 101.095L15.2081 102.916L16.6507 101.765L17.4113 102.711Z" fill="white"/>
<path d="M14.7171 88.3755L6.16406 95.9009L5.3979 94.042L12.5426 87.9877L8.76975 88.2863L4.56155 92.0128L3.80708 90.1822L6.84188 87.6484L2.90055 87.9828L2.14023 86.138L7.76964 85.8598L10.6652 83.4326L1.30973 84.123L0.54357 82.2641L11.939 81.6352L12.828 83.7921L9.70591 86.4777L13.8281 86.2186L14.7171 88.3755Z" fill="white"/>
<path d="M10.7186 75.5522C10.7948 75.9957 10.7747 76.4244 10.6583 76.8385C10.5419 77.2526 10.3375 77.609 10.0451 77.9078C9.7408 78.1983 9.35586 78.3832 8.89029 78.4626C8.33362 78.5574 7.85478 78.499 7.45378 78.2872C7.05277 78.0754 6.72554 77.7473 6.47208 77.3029C6.21689 76.8484 6.03821 76.3238 5.93603 75.7291L5.62949 73.945C5.28536 74.0037 5.00643 74.1083 4.7927 74.2588C4.57723 74.3993 4.42695 74.5857 4.34186 74.818C4.24492 75.0421 4.22243 75.3052 4.27439 75.6076C4.335 75.9604 4.47053 76.2641 4.68096 76.5188C4.87954 76.765 5.16621 76.8874 5.54096 76.8858L5.87348 78.821C5.31827 78.8638 4.8156 78.7575 4.36545 78.5022C3.9153 78.2469 3.54065 77.8854 3.24152 77.4176C2.94238 76.9499 2.74345 76.4287 2.64473 75.8542C2.5235 75.1486 2.5529 74.5315 2.73292 74.0029C2.91121 73.4641 3.22075 73.0223 3.66154 72.6775C4.09221 72.3344 4.63649 72.1067 5.29437 71.9946L7.58683 71.604C7.80604 71.5459 7.944 71.4394 8.00072 71.2845C8.05745 71.1295 8.06589 70.9362 8.02606 70.7043L9.65052 70.4275C9.73192 70.9013 9.75478 71.3072 9.71911 71.6452C9.68171 71.9732 9.59429 72.2527 9.45687 72.4836C9.30932 72.7162 9.11104 72.9264 8.86201 73.1141C9.29657 73.2786 9.69292 73.5846 10.0511 74.0319C10.3973 74.4709 10.6198 74.9776 10.7186 75.5522ZM9.0587 75.2592C9.00155 74.9266 8.87368 74.6371 8.67511 74.3909C8.47479 74.1345 8.22328 73.9439 7.92057 73.8192C7.61785 73.6944 7.28937 73.6622 6.93513 73.7225L6.8744 73.7329L7.16016 75.396C7.19826 75.6177 7.27005 75.8234 7.37554 76.0129C7.4709 76.2041 7.59983 76.3482 7.76231 76.445C7.91466 76.5435 8.10724 76.5729 8.34003 76.5333C8.65378 76.4798 8.86839 76.3343 8.98384 76.0968C9.08744 75.8509 9.11239 75.5717 9.0587 75.2592Z" fill="white"/>
<path d="M9.53563 65.9799C9.55987 66.7975 9.37806 67.4217 8.99019 67.8525C8.60201 68.2731 8.00764 68.4951 7.20706 68.5187L3.61983 68.6241L3.64892 69.6053L2.00157 69.6537L1.97248 68.6726L0.109586 68.7273L0.0514153 66.7651L1.91431 66.7103L1.86295 64.9779L3.51031 64.9295L3.56166 66.6618L7.16428 66.5559C7.45167 66.5475 7.64441 66.4651 7.7425 66.3088C7.8406 66.1525 7.88601 65.9516 7.87874 65.7064L7.85193 64.8019L9.49928 64.7534L9.53563 65.9799Z" fill="white"/>
<path d="M10.0423 59.157C9.95567 59.9191 9.71164 60.5656 9.31024 61.0967C8.89863 61.6266 8.37903 62.0157 7.75143 62.2639C7.11363 62.511 6.40701 62.5909 5.63157 62.5034C4.86633 62.4171 4.20005 62.1876 3.63273 61.8149C3.06656 61.432 2.64747 60.9371 2.37547 60.3301C2.09326 59.722 1.99606 59.0318 2.08387 58.2595C2.18785 57.345 2.50523 56.5987 3.03601 56.0205C3.56793 55.4321 4.29555 55.0768 5.21884 54.9545L4.98141 57.0426C4.67513 57.1007 4.40493 57.2503 4.17083 57.4915C3.92768 57.7213 3.78242 58.0446 3.73505 58.4612C3.68768 58.8778 3.75611 59.2302 3.94033 59.5186C4.12456 59.8069 4.38772 60.0373 4.72981 60.2097C5.06285 60.3707 5.43854 60.4748 5.85687 60.522C6.27519 60.5692 6.66985 60.5519 7.04082 60.4703C7.40275 60.3773 7.70586 60.2108 7.95017 59.9708C8.18427 59.7296 8.32501 59.4007 8.37238 58.9841C8.41744 58.5878 8.36768 58.2529 8.22311 57.9793C8.06834 57.7046 7.82443 57.4867 7.49139 57.3256L7.72881 55.2375C8.28517 55.434 8.74777 55.7281 9.11662 56.1196C9.48661 56.5009 9.75044 56.9526 9.90809 57.4747C10.0669 57.9865 10.1116 58.5473 10.0423 59.157Z" fill="white"/>
<path d="M10.653 53.4873L0.306641 50.4668L0.856922 48.5974L4.72942 49.728C4.45964 49.3721 4.3031 48.9588 4.2598 48.4879C4.20954 48.0044 4.24795 47.5467 4.37505 47.1149C4.62347 46.271 5.10302 45.6597 5.8137 45.2811C6.51453 44.8996 7.38226 44.8599 8.41689 45.1619L12.7328 46.4219L12.1825 48.2913L8.11788 47.1047C7.56608 46.9436 7.08078 46.9564 6.66198 47.1432C6.23622 47.3173 5.9439 47.6742 5.78503 48.2139C5.62616 48.7536 5.67583 49.221 5.93405 49.6161C6.1853 49.9985 6.58683 50.2702 7.13864 50.4313L11.2033 51.618L10.653 53.4873Z" fill="white"/>
<path d="M16.9536 37.7808L5.70312 35.5054L6.80781 33.7149L15.8715 35.6964L10.009 28.5265L11.0975 26.7621L18.2196 35.7289L16.9536 37.7808Z" fill="white"/>
<path d="M15.0819 25.4855C14.8603 25.7542 14.5729 25.9093 14.2195 25.9511C13.8647 25.9785 13.5525 25.8818 13.2827 25.6611C13.005 25.4339 12.8492 25.1477 12.8152 24.8022C12.7877 24.4489 12.8847 24.138 13.1063 23.8693C13.3344 23.5928 13.6219 23.4376 13.9688 23.4037C14.3156 23.3699 14.6279 23.4665 14.9056 23.6937C15.1753 23.9144 15.3312 24.2007 15.3731 24.5526C15.4071 24.898 15.31 25.209 15.0819 25.4855ZM21.1209 31.6962L15.2179 26.8671L16.4693 25.3501L22.3722 30.1792L21.1209 31.6962Z" fill="white"/>
<path d="M26.1656 26.4053C25.626 26.9086 25.0385 27.2114 24.4032 27.3136C23.7683 27.4014 23.1389 27.3231 22.5149 27.0784C21.8915 26.8194 21.3271 26.4212 20.8217 25.8838C20.3163 25.3465 19.965 24.7635 19.7678 24.1349C19.5635 23.4989 19.5369 22.8723 19.6879 22.255C19.832 21.6303 20.1663 21.0733 20.6909 20.584C21.0506 20.2485 21.4618 20.0051 21.9244 19.8538C22.3945 19.6955 22.8753 19.6533 23.3669 19.7272L20.5243 16.7046L21.9744 15.3521L29.3441 23.1884L27.894 24.541L27.1465 23.7461C27.2469 24.2269 27.2022 24.7029 27.0124 25.1742C26.8226 25.6454 26.5403 26.0558 26.1656 26.4053ZM25.3574 24.8055C25.6571 24.5259 25.849 24.2139 25.933 23.8693C26.0244 23.5178 26.0181 23.1595 25.9138 22.7944C25.8026 22.4218 25.5961 22.0751 25.2943 21.7542C24.9223 21.3586 24.5453 21.1148 24.1633 21.0228C23.7743 20.9233 23.411 20.9259 23.0734 21.0307C22.7358 21.1354 22.4546 21.2926 22.2298 21.5023C21.9375 21.775 21.7456 22.087 21.6542 22.4385C21.5702 22.783 21.5803 23.1378 21.6845 23.5029C21.7817 23.8606 21.9812 24.1999 22.2831 24.5208C22.5778 24.8342 22.9083 25.0584 23.2743 25.1933C23.6403 25.3283 24.006 25.3655 24.3712 25.3051C24.7364 25.2446 25.0651 25.0781 25.3574 24.8055Z" fill="white"/>
<path d="M34.4124 19.8755C33.7396 20.3081 33.0626 20.5364 32.3816 20.5605C31.7092 20.579 31.0749 20.4208 30.479 20.0859C29.883 19.751 29.3789 19.2657 28.9668 18.63C28.5269 17.9514 28.2834 17.2742 28.2365 16.5985C28.1895 15.9228 28.3228 15.2894 28.6363 14.6984C28.9442 14.0987 29.4217 13.5909 30.0686 13.175C30.707 12.7645 31.3525 12.5443 32.0052 12.5141C32.6664 12.4784 33.2867 12.6151 33.866 12.9242C34.4539 13.2278 34.9511 13.6932 35.3577 14.3203C35.4301 14.4319 35.4982 14.5464 35.5619 14.6636C35.6201 14.7722 35.6712 14.8793 35.7152 14.9849L30.9535 18.0465C31.1743 18.3305 31.4245 18.5469 31.7043 18.6956C31.9871 18.8303 32.2824 18.8899 32.5902 18.8745C32.9011 18.845 33.2032 18.736 33.4965 18.5474C33.7984 18.3533 34.0155 18.1225 34.1476 17.855C34.2883 17.5819 34.3371 17.2707 34.2938 16.9212L36.0666 15.7814C36.1908 16.237 36.2251 16.714 36.1693 17.2124C36.1135 17.7108 35.9426 18.1918 35.6566 18.6556C35.3792 19.1139 34.9645 19.5205 34.4124 19.8755ZM30.2564 16.9429L33.3489 14.9545C33.0618 14.5306 32.6823 14.2939 32.2102 14.2444C31.7468 14.1894 31.3081 14.295 30.894 14.5612C30.5403 14.7886 30.2849 15.1111 30.1278 15.5285C29.9651 15.9374 30.0079 16.4089 30.2564 16.9429Z" fill="white"/>
<path d="M42.6704 15.5023C41.9599 15.7982 41.2618 15.9116 40.5761 15.8424C39.8959 15.76 39.2826 15.5055 38.7363 15.0791C38.1899 14.6526 37.7642 14.0762 37.4591 13.3498C37.1382 12.5856 37.0287 11.8609 37.1305 11.1756C37.2378 10.4769 37.5095 9.86499 37.9456 9.33975C38.3912 8.81057 38.955 8.40394 39.6371 8.11988C40.3476 7.82397 41.0477 7.7153 41.7373 7.79385C42.423 7.86297 43.0418 8.10405 43.5937 8.5171C44.155 8.92619 44.5922 9.5034 44.9052 10.2487C45.2023 10.9563 45.3067 11.6554 45.2183 12.3462C45.13 13.037 44.8689 13.6611 44.4352 14.2186C44.0071 14.7627 43.4188 15.1906 42.6704 15.5023ZM42.0392 13.9196C42.4181 13.7618 42.7053 13.5314 42.9008 13.2283C43.1018 12.9118 43.2155 12.5596 43.2418 12.1718C43.2642 11.7745 43.1942 11.3825 43.0318 10.9957C42.8456 10.5523 42.5971 10.2124 42.2864 9.976C41.9851 9.73569 41.6587 9.59452 41.3072 9.5525C40.9556 9.51048 40.6093 9.56048 40.2683 9.70252C39.8988 9.85639 39.6096 10.0821 39.4007 10.3797C39.2012 10.6734 39.0883 11.0142 39.062 11.402C39.0412 11.7765 39.1179 12.1712 39.2922 12.5863C39.4665 13.0014 39.7016 13.3358 39.9973 13.5895C40.3025 13.8393 40.6349 13.9946 40.9943 14.0555C41.3499 14.107 41.6981 14.0617 42.0392 13.9196Z" fill="white"/>
<path d="M54.2657 6.28006L53.9884 4.46044L52.5433 5.60964L51.7899 4.65312L53.2198 3.50623L51.5149 2.84867L51.9494 1.71262L53.6717 2.38304L53.3944 0.56342L54.5974 0.381577L54.8748 2.2012L56.3198 1.052L57.0884 2.00621L55.641 3.14024L57.3634 3.81066L56.9138 4.94902L55.1914 4.2786L55.4687 6.09821L54.2657 6.28006Z" fill="white"/>
</svg>
